<?xml version="1.0" standalone="no"?>
<!DOCTYPE svg PUBLIC "-//W3C//DTD SVG 20010904//EN"
 "http://www.w3.org/TR/2001/REC-SVG-20010904/DTD/svg10.dtd">
<svg version="1.0" xmlns="http://www.w3.org/2000/svg"
 width="874.000000pt" height="134.000000pt" viewBox="0 0 874.000000 134.000000"
 preserveAspectRatio="xMidYMid meet">

<g transform="translate(0.000000,134.000000) scale(0.100000,-0.100000)"
fill="#000000" stroke="none">
<path d="M0 670 l0 -670 4370 0 4370 0 0 670 0 670 -4370 0 -4370 0 0 -670z
m967 439 c48 -11 94 -26 101 -32 10 -8 12 -36 6 -126 -9 -153 -14 -164 -62
-158 -52 6 -176 40 -180 50 -2 4 -12 -9 -23 -30 -16 -31 -19 -59 -19 -180 0
-141 0 -143 -22 -144 -22 -1 -22 -1 2 -11 19 -8 30 -25 44 -69 10 -32 16 -65
13 -73 -7 -17 -113 -52 -210 -69 -103 -17 -101 -20 -105 164 -2 136 -1 155 15
166 11 9 13 13 3 13 -10 0 -12 20 -6 100 l6 100 -74 -7 c-51 -4 -85 -2 -106 7
-34 14 -90 86 -121 154 -34 78 -32 80 106 81 66 1 143 5 171 9 l51 8 -3 -33
-4 -34 10 31 c8 24 21 35 62 52 30 12 65 22 78 23 14 0 43 6 65 14 58 19 102
18 202 -6z m3378 11 c5 -8 -6 -124 -21 -223 l-6 -39 -127 7 c-85 5 -135 4
-148 -3 -13 -8 -23 -8 -30 -1 -7 7 -12 1 -16 -19 -8 -40 -32 -47 -75 -22 -40
24 -51 21 -21 -6 17 -15 40 -20 115 -22 71 -3 94 -7 94 -18 0 -8 9 -4 25 12
24 24 29 25 137 22 l113 -3 -1 -67 c-1 -36 -8 -79 -16 -95 l-13 -28 -174 -3
c-102 -1 -178 2 -185 7 -9 8 -11 -19 -8 -112 3 -71 -1 -146 -7 -178 l-12 -55
-107 -12 c-136 -15 -152 -15 -152 1 0 8 11 24 25 37 14 13 23 26 20 28 -3 3
-19 -7 -35 -23 l-30 -29 0 197 c0 164 2 199 15 203 12 5 12 9 1 27 -10 16 -15
75 -17 217 l-4 195 134 3 c94 2 137 -1 142 -9 4 -7 12 -8 20 -3 8 5 73 7 144
6 72 -2 144 2 160 7 40 12 53 13 60 1z m3323 -13 c2 -10 -20 -70 -48 -134 -29
-64 -54 -130 -57 -147 -4 -28 -2 -32 31 -44 25 -9 44 -27 63 -59 32 -55 63
-162 63 -219 0 -85 -46 -169 -116 -210 -53 -31 -90 -32 -100 -1 l-7 22 -10
-22 c-11 -25 -36 -30 -55 -11 -9 9 -31 8 -96 -1 -61 -9 -90 -10 -104 -2 -12 6
-35 11 -52 11 -55 0 -117 21 -155 53 -38 31 -87 120 -79 142 7 17 159 75 215
82 36 4 49 2 60 -12 8 -9 27 -31 42 -47 30 -33 19 -32 152 -10 42 7 67 38 63
77 -3 19 -13 20 -133 25 -72 4 -136 9 -143 14 -7 4 -12 24 -12 44 1 20 -2 54
-6 75 -9 53 6 67 72 67 52 0 54 1 93 53 38 49 39 52 18 55 -14 3 -27 -4 -35
-17 -13 -19 -24 -21 -127 -21 -100 0 -116 2 -146 23 -23 16 -35 33 -41 59 -4
21 -22 63 -39 94 -26 46 -29 58 -18 65 21 13 256 11 265 -2 4 -7 9 -8 17 0 6
6 61 8 156 5 80 -3 166 -1 191 4 58 13 74 11 78 -11z m687 -28 c75 -71 87
-113 120 -409 18 -155 14 -210 -17 -276 -26 -56 -44 -71 -123 -99 -75 -28
-157 -32 -231 -14 -34 9 -48 9 -57 0 -16 -16 -45 -13 -56 7 -10 16 -10 16 -11
-1 0 -17 -8 -19 -90 -15 -69 2 -93 7 -107 21 -17 16 -18 47 -19 388 -1 367 -1
371 20 384 43 29 266 62 419 64 l98 1 54 -51z m-6721 -159 c-1 -19 -5 -65 -9
-102 l-6 -66 -135 3 c-73 2 -133 1 -133 -3 7 -44 -18 -62 -57 -42 -51 28 -102
-34 -58 -71 9 -7 14 -22 11 -36 -2 -12 0 -20 4 -17 14 8 10 40 -6 54 -22 19
-19 57 6 65 12 4 26 2 32 -4 6 -6 46 -11 89 -11 52 0 78 -4 78 -12 0 -6 7 -4
18 5 15 13 39 17 112 17 l93 0 -5 -65 c-8 -97 -7 -96 -172 -93 l-141 3 2 30
c2 26 0 28 -11 13 -10 -13 -10 -28 -2 -63 l11 -45 117 0 c85 0 118 -3 118 -12
0 -9 3 -9 12 0 7 7 34 12 60 12 43 0 50 -3 58 -26 14 -37 12 -167 -2 -186 -12
-15 -22 -14 -108 9 -128 34 -242 36 -372 4 -53 -13 -102 -21 -108 -19 -8 2 -2
17 16 38 l29 35 -29 -23 c-16 -12 -33 -22 -37 -22 -5 0 -9 67 -9 149 0 128 2
150 16 155 11 4 13 10 6 19 -5 6 -11 84 -13 172 l-4 160 240 2 c132 2 244 5
250 7 26 12 40 -1 39 -34z m640 -40 c110 -113 123 -186 48 -269 -31 -35 -47
-43 -102 -55 -36 -8 -53 -14 -39 -15 21 -1 38 -16 75 -67 27 -36 61 -72 77
-80 33 -18 33 -47 0 -52 -12 -2 -25 -11 -28 -20 -3 -9 -17 -26 -32 -36 -25
-19 -26 -19 -61 0 -52 28 -184 162 -211 214 l-23 45 6 -55 c4 -30 14 -79 23
-109 15 -48 15 -57 2 -80 -14 -25 -19 -26 -104 -29 -135 -4 -129 -14 -133 218
-2 106 0 196 5 201 5 5 6 35 2 67 -4 31 -8 76 -8 100 -1 40 2 44 33 57 51 21
220 44 314 42 l83 -2 73 -75z m640 0 c110 -113 123 -186 48 -269 -31 -35 -47
-43 -102 -55 -36 -8 -53 -14 -39 -15 21 -1 38 -16 75 -67 27 -36 61 -72 77
-80 31 -17 33 -47 4 -52 -10 -2 -33 -20 -52 -40 l-34 -37 -36 19 c-50 27 -166
141 -205 201 l-32 50 6 -50 c4 -27 14 -74 23 -104 15 -48 15 -57 2 -80 -14
-25 -19 -26 -104 -29 -135 -4 -129 -14 -133 218 -2 106 0 196 5 201 4 4 4 50
-1 103 -7 71 -6 99 3 110 7 8 53 21 104 30 135 23 144 24 235 22 l83 -1 73
-75z m531 44 c8 -19 48 -93 90 -163 l75 -128 0 -87 c0 -67 -3 -88 -15 -92 -12
-5 -12 -9 3 -23 27 -24 47 -89 32 -106 -14 -16 -186 -58 -221 -53 -23 3 -24 7
-27 84 l-3 82 -44 15 -45 14 0 -76 c0 -105 -5 -111 -118 -123 -51 -6 -95 -8
-99 -4 -3 3 2 15 12 26 10 11 16 22 13 25 -3 3 -11 -1 -18 -10 -24 -29 -30
-14 -30 80 0 79 3 95 15 95 12 0 13 4 5 19 -21 40 -11 100 26 167 20 35 40 67
46 70 5 3 29 37 54 75 33 52 49 69 66 69 13 0 50 18 83 40 33 22 66 40 72 40
7 0 19 -16 28 -36z m1425 -20 c42 -44 50 -59 65 -128 10 -45 15 -99 13 -128
-3 -27 -2 -44 3 -37 11 19 16 0 23 -89 8 -89 -5 -141 -44 -185 -48 -55 -179
-83 -267 -58 -20 6 -35 6 -38 0 -12 -18 -45 -10 -45 11 0 22 -10 26 -27 9 -8
-8 -26 -1 -66 24 -75 48 -82 72 -82 267 0 173 10 209 75 284 59 66 120 86 254
82 l88 -2 48 -50z m664 -24 c110 -113 124 -191 48 -271 -30 -32 -49 -42 -102
-53 -36 -8 -53 -14 -39 -15 21 -1 38 -16 75 -67 27 -36 61 -72 77 -80 33 -18
33 -47 -1 -52 -12 -2 -22 -9 -22 -16 0 -7 -14 -23 -32 -36 -31 -23 -31 -23
-65 -5 -48 26 -165 141 -203 200 l-32 50 6 -50 c4 -27 14 -74 23 -104 15 -48
15 -57 2 -80 -14 -25 -19 -26 -104 -29 -135 -4 -129 -14 -133 218 -2 106 0
196 5 201 5 5 6 35 2 67 -4 31 -8 76 -8 100 -1 40 2 44 33 57 51 21 220 44
314 42 l83 -2 73 -75z m617 14 c43 -43 64 -73 74 -107 14 -45 13 -48 -8 -61
-12 -8 -46 -18 -74 -22 -50 -6 -53 -5 -62 19 -19 49 -106 71 -168 42 -74 -34
-83 -49 -83 -135 0 -103 13 -136 62 -161 47 -24 126 -24 119 1 -2 8 -6 32 -9
53 l-4 37 50 0 c28 0 54 -4 57 -10 9 -15 35 -12 29 3 -3 8 9 16 34 23 l39 11
5 -102 c4 -67 11 -113 23 -134 20 -39 13 -65 -15 -58 -11 3 -18 2 -15 -3 5 -8
-52 -20 -102 -20 -23 0 -33 5 -33 16 0 8 -5 24 -11 36 -10 19 -12 18 -27 -14
l-17 -33 -82 -1 c-73 0 -83 2 -83 18 0 19 -15 24 -25 8 -8 -13 -73 21 -107 57
-38 40 -51 119 -46 268 5 134 21 183 78 249 59 66 120 86 253 82 l88 -2 60
-60z m661 -5 c-2 -36 -7 -81 -11 -100 l-7 -34 -132 1 c-72 1 -131 -1 -130 -5
5 -43 -20 -61 -58 -41 -51 28 -102 -34 -58 -71 10 -8 14 -22 11 -38 -5 -24 -4
-25 9 -6 12 16 12 21 -6 40 -40 42 -10 92 39 66 11 -6 51 -11 90 -11 47 0 71
-4 71 -12 0 -6 7 -4 18 5 15 13 39 17 112 17 l93 0 -5 -65 c-8 -97 -7 -96
-172 -93 l-141 3 2 30 c2 26 0 28 -11 13 -10 -13 -10 -28 -2 -63 l11 -45 117
0 c85 0 118 -3 118 -12 0 -9 3 -9 12 0 7 7 34 12 60 12 43 0 50 -3 58 -26 14
-37 12 -167 -2 -186 -12 -15 -22 -14 -108 9 -128 34 -242 36 -372 4 -53 -13
-102 -21 -108 -19 -7 2 -3 14 11 32 22 28 22 28 1 15 -12 -8 -22 -17 -22 -21
0 -5 -4 -8 -10 -8 -6 0 -10 58 -10 154 0 132 2 155 16 160 11 4 13 10 6 19 -5
6 -11 84 -13 172 l-4 160 240 2 c132 2 244 5 250 7 32 14 40 1 37 -65z"/>
<path d="M542 970 c0 -14 2 -19 5 -12 2 6 2 18 0 25 -3 6 -5 1 -5 -13z"/>
<path d="M730 974 c47 -17 62 -31 75 -73 13 -39 15 -41 10 -11 -7 49 -36 85
-71 87 -16 1 -22 0 -14 -3z"/>
<path d="M686 807 c11 -12 20 -24 21 -26 2 -2 3 5 3 16 0 13 -8 23 -21 26 -20
5 -20 5 -3 -16z"/>
<path d="M561 413 c0 -6 -4 -20 -7 -30 -5 -14 -4 -15 5 -7 7 7 11 20 8 30 -3
11 -5 14 -6 7z"/>
<path d="M4002 900 c0 -14 2 -19 5 -12 2 6 2 18 0 25 -3 6 -5 1 -5 -13z"/>
<path d="M4297 907 c-11 -29 -9 -43 4 -30 6 6 9 19 7 29 -3 18 -4 18 -11 1z"/>
<path d="M7000 416 c0 -15 77 -86 93 -86 5 0 -10 23 -33 50 -43 51 -60 61 -60
36z"/>
<path d="M8190 981 c-5 -11 -10 -33 -10 -50 l0 -31 -59 0 c-33 0 -71 4 -85 10
l-26 10 0 -160 0 -160 32 -49 33 -49 78 0 c106 1 107 2 106 183 -2 169 -7 197
-37 210 -21 9 -23 15 -19 58 5 52 3 56 -13 28z"/>
<path d="M8010 515 c0 -16 -3 -41 -7 -55 l-6 -25 27 24 c31 29 31 29 6 61
l-20 25 0 -30z"/>
<path d="M1596 784 c-4 -9 -4 -19 -1 -22 2 -3 7 3 11 12 4 9 4 19 1 22 -2 3
-7 -3 -11 -12z"/>
<path d="M2138 847 c-5 -10 -8 -27 -8 -37 0 -15 -11 -20 -55 -25 -30 -4 -66
-5 -80 -3 -22 5 -25 2 -25 -26 0 -17 -3 -49 -7 -71 l-6 -39 29 23 c26 20 38
22 109 19 78 -3 79 -2 89 23 11 33 0 79 -19 79 -9 0 -15 13 -17 38 -2 27 -5
32 -10 19z"/>
<path d="M1835 700 c-3 -5 -2 -10 4 -10 5 0 13 5 16 10 3 6 2 10 -4 10 -5 0
-13 -4 -16 -10z"/>
<path d="M2778 847 c-5 -10 -8 -27 -8 -37 0 -15 -11 -20 -65 -25 -35 -4 -71
-5 -80 -1 -11 4 -15 -2 -15 -27 0 -18 -3 -50 -7 -72 l-6 -39 29 23 c26 20 38
22 109 19 78 -3 79 -2 89 23 11 33 0 79 -19 79 -9 0 -15 13 -17 38 -2 27 -5
32 -10 19z"/>
<path d="M2480 699 c0 -5 5 -7 10 -4 6 3 10 8 10 11 0 2 -4 4 -10 4 -5 0 -10
-5 -10 -11z"/>
<path d="M3305 693 c-4 -27 -9 -56 -12 -65 -4 -16 3 -18 46 -18 28 0 51 4 51
8 0 9 -70 122 -75 122 -2 0 -7 -21 -10 -47z"/>
<path d="M3416 375 c-3 -8 -1 -15 4 -15 6 0 10 7 10 15 0 8 -2 15 -4 15 -2 0
-6 -7 -10 -15z"/>
<path d="M4509 793 c-12 -15 -12 -16 6 -9 11 5 26 9 33 9 20 1 14 17 -7 17
-10 0 -25 -8 -32 -17z"/>
<path d="M4630 761 c-61 -33 -70 -49 -71 -137 -1 -93 15 -141 58 -172 26 -18
37 -20 88 -13 38 5 63 14 72 26 24 34 14 268 -14 296 -19 19 -97 18 -133 0z"/>
<path d="M4480 365 c7 -8 17 -15 22 -15 6 0 5 7 -2 15 -7 8 -17 15 -22 15 -6
0 -5 -7 2 -15z"/>
<path d="M5398 847 c-5 -10 -8 -27 -8 -37 0 -15 -11 -20 -55 -25 -30 -4 -66
-5 -80 -3 -22 5 -25 2 -25 -26 0 -17 -3 -49 -7 -71 l-6 -39 29 23 c26 20 38
22 109 19 78 -3 79 -2 89 23 11 33 0 79 -19 79 -9 0 -15 13 -17 38 -2 27 -5
32 -10 19z"/>
<path d="M5095 700 c-3 -5 -2 -10 4 -10 5 0 13 5 16 10 3 6 2 10 -4 10 -5 0
-13 -4 -16 -10z"/>
<path d="M5779 793 c-12 -15 -12 -16 6 -9 11 5 26 9 33 9 20 1 14 17 -7 17
-10 0 -25 -8 -32 -17z"/>
<path d="M5742 380 c7 -11 19 -22 28 -25 8 -4 4 5 -9 19 -29 31 -36 33 -19 6z"/>
<path d="M6541 784 c0 -11 3 -14 6 -6 3 7 2 16 -1 19 -3 4 -6 -2 -5 -13z"/>
<path d="M6776 784 c-4 -9 -4 -19 -1 -22 2 -3 7 3 11 12 4 9 4 19 1 22 -2 3
-7 -3 -11 -12z"/>
</g>
</svg>
